<svg xmlns="http://www.w3.org/2000/svg" width="200" height="200" viewBox="0 0 200 200">
  <circle cx="100" cy="100" r="100" fill="#f8e1d0" />
  
  <!-- Face outline -->
  <ellipse cx="100" cy="100" rx="70" ry="85" fill="#5D4037" />
  
  <!-- Eyes -->
  <ellipse cx="75" cy="85" rx="10" ry="5" fill="#ffffff" />
  <circle cx="75" cy="85" r="5" fill="#4a4a4a" />
  
  <ellipse cx="125" cy="85" rx="10" ry="5" fill="#ffffff" />
  <circle cx="125" cy="85" r="5" fill="#4a4a4a" />
  
  <!-- Nose -->
  <path d="M100,90 L95,110 L105,110" fill="none" stroke="#4E342E" stroke-width="2" />
  
  <!-- Mouth -->
  <path d="M80,125 Q100,140 120,125" fill="none" stroke="#4E342E" stroke-width="2" />
  
  <!-- Beard -->
  <path d="M60,110 C60,150 140,150 140,110" fill="none" stroke="#4a4a4a" stroke-width="10" />
  
  <!-- Hair -->
  <path d="M100,40 C60,40 40,60 40,80 C40,100 60,110 100,110 C140,110 160,100 160,80 C160,60 140,40 100,40 Z" fill="#4a4a4a" />
</svg>