<svg xmlns="http://www.w3.org/2000/svg" width="200" height="200" viewBox="0 0 200 200">
  <circle cx="100" cy="100" r="100" fill="#f8e1d0" />
  
  <!-- Face outline -->
  <ellipse cx="100" cy="100" rx="70" ry="85" fill="#8B5A2B" />
  
  <!-- Eyes -->
  <ellipse cx="75" cy="85" rx="10" ry="5" fill="#ffffff" />
  <circle cx="75" cy="85" r="5" fill="#4a4a4a" />
  
  <ellipse cx="125" cy="85" rx="10" ry="5" fill="#ffffff" />
  <circle cx="125" cy="85" r="5" fill="#4a4a4a" />
  
  <!-- Nose -->
  <path d="M100,90 L95,110 L105,110" fill="none" stroke="#6B4423" stroke-width="2" />
  
  <!-- Mouth -->
  <path d="M80,125 Q100,140 120,125" fill="none" stroke="#6B4423" stroke-width="2" />
  
  <!-- Hair -->
  <path d="M100,40 C60,40 30,70 30,110 C30,150 60,180 100,180 C140,180 170,150 170,110 C170,70 140,40 100,40 Z" fill="none" stroke="#4a4a4a" stroke-width="30" />
  
  <!-- Earrings -->
  <circle cx="35" cy="100" r="5" fill="#DAA520" />
  <circle cx="165" cy="100" r="5" fill="#DAA520" />
</svg>